<svg width="28" height="28" viewBox="0 0 28 28" fill="none" xmlns="http://www.w3.org/2000/svg">
<path d="M24.2566 14.7087C24.5414 14.4646 24.6838 14.3426 24.736 14.1973C24.7818 14.0698 24.7818 13.9304 24.736 13.8029C24.6838 13.6576 24.5414 13.5356 24.2566 13.2915L14.3741 4.82073C13.8838 4.4005 13.6387 4.19039 13.4311 4.18524C13.2508 4.18076 13.0785 4.26001 12.9645 4.39986C12.8333 4.56079 12.8333 4.88365 12.8333 5.52937V10.5405C10.3429 10.9762 8.06353 12.2381 6.36966 14.1329C4.52296 16.1987 3.50144 18.872 3.5 21.6429V22.3569C4.72423 20.8821 6.25276 19.6894 7.98088 18.8603C9.50448 18.1294 11.1515 17.6965 12.8333 17.5824V22.4708C12.8333 23.1165 12.8333 23.4394 12.9645 23.6003C13.0785 23.7402 13.2508 23.8194 13.4311 23.815C13.6387 23.8098 13.8838 23.5997 14.3741 23.1795L24.2566 14.7087Z" stroke="#D97706" stroke-width="2" stroke-linecap="round" stroke-linejoin="round"/>
</svg>
